<svg xmlns="http://www.w3.org/2000/svg" width="1141.959" height="1056.871" viewBox="0 0 1141.959 1056.871">
  <path id="Path_3" data-name="Path 3" d="M458.426,946.375c115.275,14.77,252.534-4.18,327.058-93.3,73.5-87.9,25.568-219.417,30.156-333.872,3.142-78.406,4.645-152.007-7.575-229.52-14.835-94.1,7.045-215.042-71.111-269.579-78.361-54.68-183.2,18.764-278.528,25.6C372.8,51.846,281.457,14.514,207.505,58.076c-76.375,44.99-106.716,136.111-140.324,218.1-36.4,88.789-83.78,180.71-61.41,274.02,23.09,96.314,106.783,160.96,181.336,226.213C269.419,848.449,349.9,932.469,458.426,946.375" transform="translate(227.896 1056.871) rotate(-106)" fill="#241b3e" opacity="0.48"/>
</svg>
