<svg xmlns="http://www.w3.org/2000/svg" xmlns:xlink="http://www.w3.org/1999/xlink" width="284.574" height="288.064" viewBox="0 0 284.574 288.064">
  <defs>
    <clipPath id="clip-path">
      <rect id="Rectangle_20" data-name="Rectangle 20" width="68.807" height="21.024" transform="translate(0)" fill="#fff"/>
    </clipPath>
  </defs>
  <g id="Layer_2" data-name="Layer 2" transform="translate(-33.075 191.545)">
    <g id="Layer_1" data-name="Layer 1" transform="translate(33.075 -191.545)">
      <path id="Path_16" data-name="Path 16" d="M142.7,109.526a56.023,56.023,0,0,1,18.909-3.592L58.289,10.455l81.718,92.757L92.328,59.78l38.926,48.912L70.337,54.806l49.86,60.717L80.564,82.049l25.468,30.926L11.521,26.938l68.733,78.485L57.167,84.373,105.4,142.65,38.6,83.842l67.691,77.327A56.382,56.382,0,0,1,142.7,109.526Z" transform="translate(-11.521 -10.455)" fill="#01d681"/>
      <g id="Group_76557" data-name="Group 76557" transform="translate(56.813 238.804)">
        <rect id="Rectangle_19" data-name="Rectangle 19" width="227.574" height="48.831" transform="translate(0.187 0.43)" fill="#01d681"/>
        <text id="هاتريك_ستور" data-name="هاتريك ستور" transform="translate(39.187 32.43)" fill="#fff" font-size="26" font-family="Almarai-Bold, Almarai" font-weight="700"><tspan x="0" y="0">هاتريك ستور</tspan></text>
      </g>
      <g id="Group_76511" data-name="Group 76511" transform="translate(60.485 61.537)">
        <path id="Path_23" data-name="Path 23" d="M413.692,485.81h7.676l2.412-8.793a9.345,9.345,0,0,1,5.728-6.27l7.955-3a9.34,9.34,0,0,1,8.431.937l9.014,5.933a9.332,9.332,0,0,1,4.206,7.737l.019,3.443h3.507l-.022-4.145a9.334,9.334,0,0,1,3.507-7.348l8.655-6.925a9.348,9.348,0,0,1,8.389-1.688L491.3,468a9.348,9.348,0,0,1,6.184,5.7l4.523,12-.075.1h4.173a54.292,54.292,0,1,0-92.415,0Zm73.18-59.187,12.918-.6a50.7,50.7,0,0,1,10.8,28.766l-10.127,8.1a9.357,9.357,0,0,1-8.389,1.691l-8.063-2.291a9.346,9.346,0,0,1-6.187-5.692l-3.888-10.31a9.354,9.354,0,0,1,.934-8.425l4.629-7.046A9.345,9.345,0,0,1,486.872,426.623Zm-48.081-4.07,3.49-12.711a50.455,50.455,0,0,1,30.468-1.492l4.642,12.313a9.337,9.337,0,0,1-.942,8.431l-4.474,6.814A9.34,9.34,0,0,1,464.6,440.1l-11.026.511a9.348,9.348,0,0,1-7.527-3.255L440.7,431.1a9.346,9.346,0,0,1-1.915-8.55Zm-21.554,7.461,12.695-.589a9.34,9.34,0,0,1,7.508,3.261l5.477,6.394a9.351,9.351,0,0,1,1.912,8.55l-2.9,10.564a9.337,9.337,0,0,1-5.712,6.27l-7.958,3a9.334,9.334,0,0,1-8.428-.94l-10.6-6.972a50.954,50.954,0,0,1,7.991-29.528Z" transform="translate(-349.133 -345.236)" fill="#fff"/>
        <path id="Path_24" data-name="Path 24" d="M610.487,383.19A93.146,93.146,0,0,0,492.66,266.058l10.348,9.542A80.452,80.452,0,0,1,596.792,383.19Z" transform="translate(-412.875 -242.605)" fill="#fff"/>
        <path id="Path_25" data-name="Path 25" d="M481.722,205.972a99.427,99.427,0,0,1,95.2,128.1H589.01A111.2,111.2,0,0,0,437.2,202.81l10.1,9.31A98.925,98.925,0,0,1,481.722,205.972Z" transform="translate(-372.74 -193.49)" fill="#fff"/>
        <path id="Path_26" data-name="Path 26" d="M265.73,546.69h13.855a80.776,80.776,0,0,1-3.272-48.521l-9.9-10.879a93.123,93.123,0,0,0-.685,59.411Z" transform="translate(-243.289 -406.116)" fill="#fff"/>
        <path id="Path_27" data-name="Path 27" d="M212.251,507.4a99.382,99.382,0,0,1,2.5-64.625l-8.9-9.776a111.543,111.543,0,0,0-5.527,74.4Z" transform="translate(-196.382 -366.828)" fill="#fff"/>
      </g>
      <g id="Group_76675" data-name="Group 76675" transform="translate(61.756 209.543)">
        <g id="Group_76556" data-name="Group 76556" transform="translate(0 1.33)">
          <path id="Path_31" data-name="Path 31" d="M515.214,783.65v2.729H508.67V783.65Z" transform="translate(-455.671 -772.176)" fill="#fff"/>
          <g id="Group_76556-2" data-name="Group 76556" transform="translate(0 -0.64)">
            <path id="Path_28" data-name="Path 28" d="M207.8,728.129h-7.525v8.611h-3.9V717.77h3.9v7.1h7.5v-7.1h3.922v18.97h-3.9Z" transform="translate(-196.37 -717.476)" fill="#fff"/>
            <path id="Path_29" data-name="Path 29" d="M314.339,732.925h-7.1l-1.271,3.815H302l6.729-18.97h4.319l6.571,18.97h-4.034Zm-1.059-3.258-2.456-7.419-2.491,7.419Z" transform="translate(-284.074 -717.476)" fill="#fff"/>
            <path id="Path_30" data-name="Path 30" d="M420.9,721.058V736.77H417V721.058h-5.77V717.8h15.182v3.258Z" transform="translate(-374.767 -717.501)" fill="#fff"/>
            <path id="Path_32" data-name="Path 32" d="M565.365,721.058V736.77H561.47V721.058H555.7V717.8h15.182v3.258Z" transform="translate(-494.719 -717.501)" fill="#fff"/>
            <path id="Path_33" data-name="Path 33" d="M662.9,729.215v7.525H659V717.77h10.182a4.931,4.931,0,0,1,3.684,1.3,5.244,5.244,0,0,1,1.431,3.841,4.637,4.637,0,0,1-3.233,4.691,3.548,3.548,0,0,1,2.225,1.775,25.368,25.368,0,0,1,.424,5.113,1.671,1.671,0,0,0,.821,1.538v.714h-4.192a6.932,6.932,0,0,1-.582-3.206q0-.53.025-1.3v-.769q0-2.25-2.41-2.252Zm0-3.258h4.716a3.347,3.347,0,0,0,2.067-.477,2.522,2.522,0,0,0,.716-2.014,2.362,2.362,0,0,0-.716-1.935,3.254,3.254,0,0,0-2.067-.509H662.9Z" transform="translate(-580.489 -717.476)" fill="#fff"/>
            <path id="Path_34" data-name="Path 34" d="M773.1,717.77v18.97h-3.9V717.77Z" transform="translate(-671.987 -717.476)" fill="#fff"/>
            <path id="Path_35" data-name="Path 35" d="M826.712,722.665H823a3.809,3.809,0,0,0-4.054-3.285,4.3,4.3,0,0,0-3.788,1.96,8.186,8.186,0,0,0-1.14,4.582,7.426,7.426,0,0,0,1.431,4.921,4.2,4.2,0,0,0,3.365,1.458,4.265,4.265,0,0,0,2.916-.954,4.007,4.007,0,0,0,1.271-2.72h3.79a6.806,6.806,0,0,1-2.651,5.326,8.59,8.59,0,0,1-5.431,1.643,7.87,7.87,0,0,1-6.571-2.968,10.69,10.69,0,0,1-2.014-6.788q0-4.821,2.649-7.467a8.089,8.089,0,0,1,6.016-2.332,7.858,7.858,0,0,1,6.649,2.941A6.719,6.719,0,0,1,826.712,722.665Z" transform="translate(-705.962 -716.04)" fill="#fff"/>
            <path id="Path_36" data-name="Path 36" d="M929.735,730.408v6.332H925.84V717.77h3.895v8.355l7.42-8.346h4.611l-7.583,8.151,8.373,10.81H937.9l-6.2-8.372Z" transform="translate(-802.044 -717.476)" fill="#fff"/>
          </g>
        </g>
        <g id="Mask_Group_4" data-name="Mask Group 4" transform="translate(148.866 -0.31)" clip-path="url(#clip-path)">
          <text id="Store" transform="translate(0 18.443)" fill="#fff" font-size="25" font-family="Almarai-Bold, Almarai" font-weight="700"><tspan x="0" y="0">Store</tspan></text>
        </g>
      </g>
    </g>
  </g>
</svg>
