<svg xmlns="http://www.w3.org/2000/svg" width="851.589" height="851.593" viewBox="0 0 851.589 851.593">
  <g id="Group_76651" data-name="Group 76651" transform="translate(-97.175 -92.175)">
    <path id="Path_1976" data-name="Path 1976" d="M685.414,317.6c84.952,84.952,137.914,185.759,154.9,280.039S838.3,779.6,779.447,838.447s-146.522,77.852-240.8,60.867S343.555,829.366,258.6,744.414,120.69,558.655,103.7,464.376s2.016-181.956,60.866-240.8,146.522-77.852,240.8-60.866S600.463,232.652,685.414,317.6Z" transform="translate(0 37.927)" fill="none" stroke="#fff" stroke-width="1"/>
    <path id="Path_1977" data-name="Path 1977" d="M717.414,285.6c84.951,84.952,137.914,185.759,154.9,280.039S870.3,747.6,811.447,806.447s-146.522,77.852-240.8,60.866S375.555,797.366,290.6,712.414,152.69,526.655,135.7,432.376s2.016-181.956,60.866-240.8,146.522-77.852,240.8-60.866S632.463,200.652,717.414,285.6Z" transform="translate(18.964 18.964)" fill="none" stroke="#fff" stroke-width="1"/>
    <path id="Path_1978" data-name="Path 1978" d="M749.414,253.6c84.952,84.952,137.914,185.759,154.9,280.039S902.3,715.6,843.447,774.447s-146.522,77.852-240.8,60.867S407.555,765.366,322.6,680.414,184.69,494.655,167.7,400.376s2.016-181.956,60.866-240.8S375.093,81.72,469.376,98.7,664.463,168.652,749.414,253.6Z" transform="translate(37.927)" fill="none" stroke="#fff" stroke-width="1"/>
  </g>
</svg>
