<svg id="smartphone_1_" data-name="smartphone (1)" xmlns="http://www.w3.org/2000/svg" xmlns:xlink="http://www.w3.org/1999/xlink" width="209.614" height="197.464" viewBox="0 0 209.614 197.464">
  <defs>
    <linearGradient id="linear-gradient" x1="0.124" y1="0.755" x2="0.906" y2="0.27" gradientUnits="objectBoundingBox">
      <stop offset="0" stop-color="#11cb95" stop-opacity="0"/>
      <stop offset="0.629" stop-color="#52f3e0" stop-opacity="0.369"/>
      <stop offset="1" stop-color="#01eca5"/>
    </linearGradient>
  </defs>
  <g id="Group_1681" data-name="Group 1681">
    <path id="Path_11" data-name="Path 11" d="M8.326,62.123C-1.486,78.253-2.52,106.18,4.667,123.638c6.3,15.292,18.819,29.645,35.258,31.443,6.045.661,12.224-.419,18.207.671,20.575,3.747,28.229,29.1,44.22,42.584,11.128,9.381,26.569,12.7,41.012,10.893s27.963-8.337,39.866-16.713c9.4-6.615,18.192-14.747,22.83-25.263,9.721-22.042-1.715-48.515-19.482-64.783-5.533-5.067-11.7-9.537-16.325-15.446s-7.566-13.795-5.363-20.967c1.758-5.722,6.489-10.158,8.281-15.87,2.439-7.772-1.242-16.491-7.288-21.951s-14.046-8.2-21.971-10.088c-33.2-7.894-105.963-4.718-135.585,43.976Z" transform="translate(0 -14.84)" fill="url(#linear-gradient)"/>
  </g>
  <g id="Group_1690" data-name="Group 1690" transform="translate(17.451 5.176)">
    <g id="Group_1689" data-name="Group 1689" transform="translate(34.448 0)">
      <g id="Group_1685" data-name="Group 1685">
        <path id="Path_12" data-name="Path 12" d="M221.208,236.9H144.05a12.282,12.282,0,0,1-12.282-12.282V68.765A12.282,12.282,0,0,1,144.05,56.483h77.158A12.282,12.282,0,0,1,233.49,68.765v155.85A12.282,12.282,0,0,1,221.208,236.9Z" transform="translate(-129.721 -44.61)" fill="#2626bc" opacity="0.1"/>
        <path id="Path_13" data-name="Path 13" d="M221.208,212.9H144.05a12.282,12.282,0,0,1-12.282-12.282V44.765A12.282,12.282,0,0,1,144.05,32.483h77.158A12.282,12.282,0,0,1,233.49,44.765v155.85A12.282,12.282,0,0,1,221.208,212.9Z" transform="translate(-129.721 -30.436)" fill="#201943"/>
        <path id="Path_14" data-name="Path 14" d="M131.77,75.392H233.49v145.28H131.77Z" transform="translate(-129.722 -55.778)" fill="#02ffb3"/>
        <path id="Path_15" data-name="Path 15" d="M131.77,75.392H233.49v65.573H131.77Z" transform="translate(-129.722 -55.778)" fill="#01eca5"/>
        <path id="Path_16" data-name="Path 16" d="M131.77,75.392H233.49v56.927H131.77Z" transform="translate(-129.722 -55.778)" fill="#2f2a5e"/>
        <g id="Group_1682" data-name="Group 1682" transform="translate(2.046 45.596)">
          <path id="Path_17" data-name="Path 17" d="M156.63,159.51H133.813a2.047,2.047,0,0,1-2.047-2.047V140.9a2.047,2.047,0,0,1,2.047-2.047H156.63a2.047,2.047,0,0,1,2.047,2.047v16.561A2.047,2.047,0,0,1,156.63,159.51Z" transform="translate(-131.766 -138.855)" fill="#01d681"/>
          <path id="Path_18" data-name="Path 18" d="M339.364,159.51H316.547a2.047,2.047,0,0,1-2.047-2.047V140.9a2.047,2.047,0,0,1,2.047-2.047h22.817a2.047,2.047,0,0,1,2.047,2.047v16.561A2.047,2.047,0,0,1,339.364,159.51Z" transform="translate(-239.688 -138.855)" fill="#01d681"/>
        </g>
        <path id="Path_19" data-name="Path 19" d="M246.366,138.855H216.18a2.047,2.047,0,0,0-2.047,2.047v16.561a2.047,2.047,0,0,0,2.047,2.047h5.587a4.943,4.943,0,0,1,4.41,2.625,5.734,5.734,0,0,0,10.194,0,4.943,4.943,0,0,1,4.41-2.625h5.587a2.047,2.047,0,0,0,2.047-2.047V140.9A2.048,2.048,0,0,0,246.366,138.855Z" transform="translate(-178.366 -93.259)" fill="#01d681" opacity="0.57"/>
        <g id="Group_1683" data-name="Group 1683" transform="translate(2.046 38.135)">
          <path id="Path_20" data-name="Path 20" d="M156.63,141.285H133.813a2.047,2.047,0,0,1-2.047-2.047V122.677a2.047,2.047,0,0,1,2.047-2.047H156.63a2.047,2.047,0,0,1,2.047,2.047v16.561A2.047,2.047,0,0,1,156.63,141.285Z" transform="translate(-131.766 -120.63)" fill="#fff"/>
          <path id="Path_21" data-name="Path 21" d="M339.364,141.285H316.547a2.047,2.047,0,0,1-2.047-2.047V122.677a2.047,2.047,0,0,1,2.047-2.047h22.817a2.047,2.047,0,0,1,2.047,2.047v16.561A2.047,2.047,0,0,1,339.364,141.285Z" transform="translate(-239.688 -120.63)" fill="#fff"/>
        </g>
        <path id="Path_22" data-name="Path 22" d="M218.255,211.992H141.1a14.345,14.345,0,0,1-14.329-14.329V41.812A14.345,14.345,0,0,1,141.1,27.483h77.158a14.345,14.345,0,0,1,14.329,14.329v155.85A14.345,14.345,0,0,1,218.255,211.992ZM141.1,31.577a10.247,10.247,0,0,0-10.235,10.235v155.85A10.247,10.247,0,0,0,141.1,207.9h77.158a10.247,10.247,0,0,0,10.235-10.235V41.812a10.247,10.247,0,0,0-10.235-10.235Z" transform="translate(-126.768 -27.483)" fill="#2626bc"/>
        <g id="Group_1684" data-name="Group 1684" transform="translate(43.703 9.158)">
          <path id="Path_23" data-name="Path 23" d="M249.879,53.947H235.564a2.047,2.047,0,0,1,0-4.094h14.315a2.047,2.047,0,0,1,0,4.094Z" transform="translate(-233.517 -49.853)" fill="#b7c5ff"/>
        </g>
        <circle id="Ellipse_42" data-name="Ellipse 42" cx="2.048" cy="2.048" r="2.048" transform="translate(67.569 9.157)" fill="#b7c5ff"/>
      </g>
      <path id="Path_24" data-name="Path 24" d="M231.206,306.95H172.54a8.188,8.188,0,0,1-8.188-8.188v-54.17a8.188,8.188,0,0,1,8.188-8.188h58.665a8.188,8.188,0,0,1,8.188,8.188v54.17A8.188,8.188,0,0,1,231.206,306.95Z" transform="translate(-148.965 -150.871)" fill="#fff"/>
      <g id="Group_1686" data-name="Group 1686" transform="translate(39.131 71.588)">
        <ellipse id="Ellipse_43" data-name="Ellipse 43" cx="13.777" cy="13.777" rx="13.777" ry="13.777" fill="#01d681"/>
        <path id="Path_25" data-name="Path 25" d="M252.991,227.321a6.8,6.8,0,1,0-11.66,4.757,6.775,6.775,0,0,0-1.945,4.753v2.006a13.725,13.725,0,0,0,4.094,1.527v-3.533a2.708,2.708,0,0,1,5.416,0v3.533a13.723,13.723,0,0,0,4.094-1.527v-2.006a6.761,6.761,0,0,0-1.949-4.753A6.778,6.778,0,0,0,252.991,227.321Zm-6.8,2.71a2.708,2.708,0,1,1,2.71-2.71A2.713,2.713,0,0,1,246.187,230.031Z" transform="translate(-232.412 -213.078)" fill="#fff"/>
      </g>
      <g id="Group_1687" data-name="Group 1687" transform="translate(24.52 108.412)">
        <path id="Path_26" data-name="Path 26" d="M193.489,292.289h-4.782a2.047,2.047,0,0,0,0,4.094h4.782a2.047,2.047,0,1,0,0-4.094Z" transform="translate(-186.66 -292.289)" fill="#ff7eb8"/>
        <path id="Path_27" data-name="Path 27" d="M241.389,312.561H188.707a2.047,2.047,0,1,0,0,4.094h52.682a2.047,2.047,0,1,0,0-4.094Z" transform="translate(-186.66 -304.262)" fill="#9fb0fe"/>
      </g>
      <g id="Group_1688" data-name="Group 1688" transform="translate(24.52 130.077)">
        <path id="Path_28" data-name="Path 28" d="M199.63,345.206H188.707a2.047,2.047,0,0,0,0,4.094H199.63a2.047,2.047,0,1,0,0-4.094Z" transform="translate(-186.66 -345.206)" fill="#ff7eb8"/>
        <path id="Path_29" data-name="Path 29" d="M241.389,365.478H188.707a2.047,2.047,0,0,0,0,4.094h52.682a2.047,2.047,0,1,0,0-4.094Z" transform="translate(-186.66 -357.179)" fill="#9fb0fe"/>
      </g>
      <path id="Path_30" data-name="Path 30" d="M246.366,120.63H216.18a2.047,2.047,0,0,0-2.047,2.047v16.561a2.047,2.047,0,0,0,2.047,2.047h5.587a4.943,4.943,0,0,1,4.41,2.625,5.734,5.734,0,0,0,10.194,0,4.943,4.943,0,0,1,4.41-2.625h5.587a2.047,2.047,0,0,0,2.047-2.047V122.677A2.048,2.048,0,0,0,246.366,120.63Z" transform="translate(-178.366 -82.495)" fill="#01d681"/>
      <path id="Path_31" data-name="Path 31" d="M337.477,93.874H329.01a2.047,2.047,0,1,0,0,4.094h8.467a2.047,2.047,0,0,0,0-4.094Z" transform="translate(-245.003 -66.693)" fill="#6583fe"/>
    </g>
    <path id="Path_33" data-name="Path 33" d="M430.341,156.064a2.047,2.047,0,0,1-2.047-2.047,2.459,2.459,0,0,0-2.457-2.456,2.047,2.047,0,0,1,0-4.094,2.459,2.459,0,0,0,2.457-2.456,2.047,2.047,0,1,1,4.094,0,2.459,2.459,0,0,0,2.456,2.456,2.047,2.047,0,0,1,0,4.094,2.459,2.459,0,0,0-2.456,2.456A2.047,2.047,0,0,1,430.341,156.064Z" transform="translate(-267.741 -95.685)" fill="#01eca5"/>
    <path id="Path_34" data-name="Path 34" d="M416.34,202.78a2.047,2.047,0,0,1-2.047-2.047,2.459,2.459,0,0,0-2.456-2.456,2.047,2.047,0,0,1,0-4.094,2.459,2.459,0,0,0,2.456-2.456,2.047,2.047,0,0,1,4.094,0,2.459,2.459,0,0,0,2.456,2.456,2.047,2.047,0,1,1,0,4.094,2.459,2.459,0,0,0-2.456,2.456A2.047,2.047,0,0,1,416.34,202.78Z" transform="translate(-260.291 -109.022)" fill="#201943"/>
    <path id="Path_35" data-name="Path 35" d="M49.177,308.658a2.047,2.047,0,0,1-2.047-2.047,2.459,2.459,0,0,0-2.456-2.456,2.047,2.047,0,0,1,0-4.094A2.459,2.459,0,0,0,47.13,297.6a2.047,2.047,0,1,1,4.094,0,2.459,2.459,0,0,0,2.456,2.456,2.047,2.047,0,0,1,0,4.094,2.459,2.459,0,0,0-2.456,2.456A2.047,2.047,0,0,1,49.177,308.658Z" transform="translate(-42.627 -185.807)" fill="#01eca5"/>
    <path id="Path_36" data-name="Path 36" d="M79.073,338.307a2.047,2.047,0,0,1-2.047-2.047A2.459,2.459,0,0,0,74.57,333.8a2.047,2.047,0,0,1,0-4.094,2.459,2.459,0,0,0,2.456-2.456,2.047,2.047,0,1,1,4.094,0,2.459,2.459,0,0,0,2.456,2.456,2.047,2.047,0,1,1,0,4.094,2.459,2.459,0,0,0-2.456,2.456A2.047,2.047,0,0,1,79.073,338.307Z" transform="translate(-56.091 -222.006)" fill="#01d681"/>
  </g>
</svg>
