<svg xmlns="http://www.w3.org/2000/svg" width="141.563" height="44.419" viewBox="0 0 141.563 44.419">
  <g id="Layer_1-2" transform="translate(0 0.005)">
    <path id="Path_12126" data-name="Path 12126" d="M315.636,102.861a5.133,5.133,0,0,0-1.556,3.748v.71h9.062a3.869,3.869,0,0,1-3.785,3.12H314.08v1.476H319.4a5.326,5.326,0,0,0,5.291-5.334v-.737h-9.062a3.7,3.7,0,0,1,1.291-2.171,3.775,3.775,0,0,1,2.494-.907h5.277V101.29h-5.306a5.184,5.184,0,0,0-3.748,1.571Z" transform="translate(-261.71 -84.405)" fill="#fff"/>
    <path id="Path_12127" data-name="Path 12127" d="M397.589,122.34a3.514,3.514,0,0,0-2.815,1.394A3.551,3.551,0,0,0,388.4,125.9v3.55h1.489V125.9a2.014,2.014,0,0,1,.6-1.472,2.073,2.073,0,0,1,3.533,1.361v3.662H395.5V125.8a2,2,0,0,1,.642-1.4,2.1,2.1,0,0,1,2.92.042,2,2,0,0,1,.615,1.466v3.55h1.462V125.9a3.541,3.541,0,0,0-3.55-3.563Z" transform="translate(-323.637 -101.945)" fill="#fff"/>
    <path id="Path_12128" data-name="Path 12128" d="M477.823,122.17a3.579,3.579,0,0,0,0,7.158,3.548,3.548,0,0,0,2.089-.67v.67h1.476V125.75a3.575,3.575,0,0,0-3.563-3.578Zm-1.474,2.106a2.073,2.073,0,1,1-.617,1.472A2.019,2.019,0,0,1,476.349,124.276Z" transform="translate(-395.181 -101.803)" fill="#fff"/>
    <path id="Path_12129" data-name="Path 12129" d="M528.745,123.27a3.42,3.42,0,0,0-1.055,2.489v3.62h1.476v-3.565a2.107,2.107,0,0,1,2.089-2.089h.083V122.25h-.083a3.476,3.476,0,0,0-2.51,1.019Z" transform="translate(-439.702 -101.87)" fill="#fff"/>
    <path id="Path_12130" data-name="Path 12130" d="M560.486,101.38H559.01v7.1a3.366,3.366,0,0,0,1.049,2.483,3.487,3.487,0,0,0,2.516,1.027h.083v-1.476h-.083a2.107,2.107,0,0,1-2.089-2.089v-2.089h2.173v-1.476h-2.173Z" transform="translate(-465.799 -84.48)" fill="#fff"/>
    <path id="Path_12131" data-name="Path 12131" d="M610.846,110.466h-1.212a3.866,3.866,0,0,1-3.858-3.858V101.33H604.3v5.334a5.337,5.337,0,0,0,5.332,5.277h2.688v-10.61h-1.476v9.134Z" transform="translate(-503.538 -84.438)" fill="#fff"/>
    <rect id="Rectangle_18459" data-name="Rectangle 18459" width="1.476" height="7.128" transform="translate(110.58 20.375)" fill="#fff"/>
    <path id="Path_12132" data-name="Path 12132" d="M663.837,102.8a.683.683,0,0,0,.512-.22.722.722,0,0,0,.212-.517.705.705,0,0,0-.212-.512.7.7,0,0,0-.512-.212.722.722,0,0,0-.517.212.688.688,0,0,0-.22.512.737.737,0,0,0,.737.739Z" transform="translate(-552.533 -84.446)" fill="#fff"/>
    <path id="Path_12133" data-name="Path 12133" d="M683.749,123.274a3.577,3.577,0,0,0-1.019,2.558v.7h5.441a1.964,1.964,0,0,1-.707.929,2,2,0,0,1-1.211.409H682.73v1.489h3.523a3.58,3.58,0,0,0,3.522-3.523v-.794h-5.447a1.782,1.782,0,0,1,.605-.862,2.13,2.13,0,0,1,1.137-.475h3.7V122.21H686.25a3.349,3.349,0,0,0-2.5,1.062Z" transform="translate(-568.89 -101.837)" fill="#fff"/>
    <rect id="Rectangle_18460" data-name="Rectangle 18460" width="1.476" height="7.128" transform="translate(122.681 20.375)" fill="#fff"/>
    <path id="Path_12134" data-name="Path 12134" d="M736.417,102.8a.683.683,0,0,0,.512-.22.722.722,0,0,0,.212-.517.705.705,0,0,0-.212-.512.7.7,0,0,0-.512-.212.722.722,0,0,0-.517.212.688.688,0,0,0-.22.512.737.737,0,0,0,.737.739Z" transform="translate(-613.011 -84.446)" fill="#fff"/>
    <path id="Path_12135" data-name="Path 12135" d="M757.592,122.3a3.422,3.422,0,0,0-2.518,1.049,3.571,3.571,0,0,0,0,5.026,3.543,3.543,0,0,0,6.053-2.509,3.471,3.471,0,0,0-1.034-2.516,3.4,3.4,0,0,0-2.5-1.049Zm-1.472,2.106a2.094,2.094,0,0,1,2.938,0,2.053,2.053,0,0,1,0,2.918,2.085,2.085,0,0,1-2.931,0,2.061,2.061,0,0,1-.007-2.918Z" transform="translate(-628.309 -101.912)" fill="#fff"/>
    <path id="Path_12136" data-name="Path 12136" d="M812.113,123.09a3.6,3.6,0,0,0-5.067.007,3.435,3.435,0,0,0-1.055,2.516V129.2h1.489v-3.592a2.01,2.01,0,0,1,.615-1.479,2.043,2.043,0,0,1,1.487-.61,1.991,1.991,0,0,1,1.466.609,2.027,2.027,0,0,1,.609,1.479V129.2h1.5v-3.592a3.445,3.445,0,0,0-1.049-2.524Z" transform="translate(-671.597 -101.703)" fill="#fff"/>
    <path id="Path_12137" data-name="Path 12137" d="M22.21,44.414a22.209,22.209,0,1,1,15.705-6.5h0a22.062,22.062,0,0,1-15.705,6.5ZM9.478,11.249V23.477a10.139,10.139,0,0,0,1.7,5.689c2.78,4.045,7.725,4.359,9.179,4.359.183,0,.323,0,.389-.008h.8a12.008,12.008,0,0,1-8.187-4.886,9.015,9.015,0,0,1-1.7-5.124V13.29h6.553A9.227,9.227,0,0,1,22.7,14.456a7.256,7.256,0,0,1,3.85,5.969v5.106l2.123,2.143V20.432a9.514,9.514,0,0,0-.542-2.981,8.954,8.954,0,0,0-4.165-4.986,9.884,9.884,0,0,0-4.737-1.211H9.478Zm6.45,5.868v7.235a9.493,9.493,0,0,0,.542,2.978,8.953,8.953,0,0,0,4.167,4.981,9.871,9.871,0,0,0,4.729,1.211h9.743V20.912a8.648,8.648,0,0,0-.5-2.9,10.02,10.02,0,0,0-3.2-4.579,12.645,12.645,0,0,0-7.949-2.183H23.04l.2.07c4.072,1.326,7.487,3.687,8.7,6.018a7.038,7.038,0,0,1,.905,3.715V31.483H26.372a9.244,9.244,0,0,1-4.1-.96,7.315,7.315,0,0,1-3.957-4.645,7.947,7.947,0,0,1-.268-2.049V19.26L15.926,17.12Z" transform="translate(0 0)" fill="#fff"/>
  </g>
</svg>
